<svg version="1.0" xmlns="http://www.w3.org/2000/svg"
 width="25.000000pt" height="25.000000pt" viewBox="0 0 172.000000 164.000000"
 preserveAspectRatio="xMidYMid meet">
<g transform="translate(0.000000,164.000000) scale(0.100000,-0.100000)"
fill="#2065D1" stroke="none">
<path d="M1103 1448 c-31 -34 -36 -63 -18 -102 33 -69 126 -70 159 -2 30 63
-10 126 -79 126 -30 0 -47 -6 -62 -22z m109 -15 c21 -19 23 -70 4 -95 -17 -23
-79 -24 -100 -2 -24 24 -20 80 6 98 29 21 67 20 90 -1z"/>
<path d="M801 1371 c-18 -18 -21 -33 -21 -116 0 -76 3 -97 15 -101 27 -11 43
15 50 82 6 61 8 65 28 60 12 -3 28 -6 36 -6 10 0 8 -7 -7 -23 -13 -13 -25 -43
-28 -70 -9 -66 -41 -89 -105 -75 -18 3 -329 -268 -329 -287 0 -19 28 -38 48
-33 10 3 86 51 170 107 83 55 154 101 156 101 6 0 -25 -92 -36 -106 -5 -7 -25
-15 -46 -19 -64 -11 -122 -42 -122 -63 0 -40 21 -43 123 -18 54 13 106 31 117
41 11 10 40 50 64 89 54 85 174 192 280 248 39 21 110 59 159 84 73 39 87 50
87 70 0 14 -7 27 -16 31 -9 3 -64 -17 -127 -46 -62 -28 -121 -51 -132 -51 -11
0 -45 -16 -74 -35 -64 -42 -80 -37 -30 10 27 24 34 36 26 44 -15 15 -27 14
-28 -1 0 -12 -59 -65 -59 -54 0 3 10 26 22 52 l23 46 -22 18 c-12 10 -48 21
-80 24 -32 4 -72 9 -90 12 -23 5 -36 1 -52 -15z m138 -16 c24 -3 51 -10 61
-15 17 -9 17 -12 2 -54 -16 -44 -16 -45 11 -71 l27 -27 48 25 c26 14 59 27 72
29 14 1 74 27 134 56 64 31 113 49 118 44 12 -12 -2 -22 -97 -72 -166 -87
-202 -110 -282 -175 -62 -51 -97 -90 -140 -156 -55 -85 -58 -88 -112 -103 -31
-9 -78 -19 -104 -22 -39 -6 -46 -4 -42 8 6 15 38 28 112 48 49 12 72 46 76
107 1 28 -2 38 -15 41 -9 2 -83 -40 -163 -93 -164 -108 -172 -112 -172 -90 0
8 37 47 81 86 45 39 108 95 141 125 51 47 65 54 100 54 55 0 80 20 94 77 7 26
19 61 28 76 19 36 12 53 -24 60 -47 9 -61 -7 -69 -73 -4 -34 -9 -59 -11 -56
-8 7 -13 119 -7 148 3 15 13 29 22 31 17 4 28 3 111 -8z"/>
<path d="M590 1298 c-162 -26 -160 -25 -119 -47 20 -10 44 -37 58 -62 28 -51
40 -60 101 -76 44 -12 46 -12 77 20 29 29 32 38 35 110 3 64 1 77 -12 76 -8
-1 -71 -10 -140 -21z m130 -67 c0 -47 -4 -61 -24 -80 -19 -18 -30 -21 -65 -15
-29 5 -48 15 -59 31 -9 14 -29 40 -45 58 l-27 33 72 12 c40 7 87 16 103 20 17
4 33 5 38 3 4 -2 7 -30 7 -62z"/>
<path d="M1509 1106 c-2 -2 -73 -17 -157 -32 -150 -28 -153 -29 -130 -45 67
-50 73 -34 -58 -165 -197 -197 -464 -396 -729 -543 -60 -34 -104 -61 -98 -61
26 0 255 74 358 116 248 102 496 261 668 429 l59 57 32 -31 32 -31 17 152 c15
144 16 164 6 154z m-23 -113 c-4 -49 -9 -101 -12 -116 -6 -27 -7 -28 -30 -13
-25 17 -28 16 -139 -85 -131 -120 -301 -233 -497 -331 -43 -21 -81 -38 -85
-38 -5 0 -21 -7 -37 -15 -30 -16 -170 -65 -184 -65 -4 0 9 10 28 21 151 92
386 259 485 346 111 97 263 252 271 276 3 10 -1 26 -11 37 -20 22 -17 24 70
40 39 7 81 16 95 20 53 17 53 17 46 -77z"/>
<path d="M278 795 c-70 -36 -83 -48 -73 -65 8 -13 165 70 165 88 0 19 -19 14
-92 -23z"/>
<path d="M1404 792 c-6 -10 -37 -38 -67 -62 l-56 -45 -1 -280 0 -280 70 0 69
0 3 343 c2 188 1 342 -2 342 -3 0 -10 -8 -16 -18z m-4 -342 l0 -300 -50 0 -50
0 0 257 0 257 42 43 c23 24 46 43 50 43 4 0 8 -135 8 -300z"/>
<path d="M287 714 c-103 -58 -133 -84 -94 -84 24 0 227 121 227 135 0 8 -3 15
-7 15 -5 0 -61 -30 -126 -66z"/>
<path d="M505 726 c-16 -7 -63 -25 -102 -40 -43 -17 -73 -34 -73 -42 0 -19 1
-19 120 25 59 22 105 44 105 51 0 19 -15 20 -50 6z"/>
<path d="M1145 580 c-27 -22 -58 -42 -67 -46 -16 -5 -18 -24 -18 -207 l0 -202
70 0 70 0 0 248 c0 136 -1 247 -2 246 -2 0 -25 -18 -53 -39z m35 -219 l0 -209
-42 -4 c-24 -3 -46 -3 -50 -1 -5 2 -8 85 -8 183 l0 179 43 30 c23 17 45 30 50
31 4 0 7 -94 7 -209z"/>
<path d="M903 433 l-63 -34 0 -137 0 -137 70 0 70 0 0 173 c0 94 -3 171 -7
171 -5 -1 -36 -17 -70 -36z m56 -143 l2 -140 -51 0 -51 0 3 117 3 117 40 23
c22 12 43 23 46 23 3 0 7 -63 8 -140z"/>
<path d="M744 361 c-5 -4 -35 -19 -66 -31 l-58 -24 0 -90 0 -91 69 0 70 0 3
118 c3 117 0 134 -18 118z m-4 -121 l0 -90 -44 0 c-33 0 -45 4 -48 18 -4 14
-3 79 1 118 1 10 62 42 84 43 4 1 7 -39 7 -89z"/>
<path d="M463 257 l-63 -21 0 -55 0 -56 70 0 70 0 0 78 c0 42 -3 77 -7 76 -5
0 -36 -10 -70 -22z m57 -57 l0 -50 -50 0 -50 0 0 35 c0 24 6 37 20 45 11 6 20
8 20 5 0 -3 8 -1 18 4 34 20 42 13 42 -39z"/>
</g>
      </svg>